<svg width="58" height="17" viewBox="0 0 58 17" fill="none" xmlns="http://www.w3.org/2000/svg">
<path d="M11.0581 2.25165L6.44431 13.0867L3.40492 5.77025H0L4.78358 16.971H7.87766L14.2068 2.25165H11.0581Z" fill="url(#paint0_linear_74_190)"/>
<path d="M32.7482 0H28.4712L27.5156 2.25167H30.7795L32.7482 0Z" fill="url(#paint1_linear_74_190)"/>
<path d="M11.0581 2.25165L6.44431 13.0867L3.40492 5.77025H0L4.78358 16.971H7.87766L14.2068 2.25165H11.0581Z" fill="url(#paint2_linear_74_190)"/>
<path d="M36.4064 7.40286C36.4064 8.02192 36.2366 8.58628 35.9286 9.11897C35.6178 9.65453 35.1141 10.1037 34.4377 10.4147C33.7901 10.7516 32.9468 10.9215 31.9337 10.9215C31.2026 10.9215 30.4428 10.8092 29.7405 10.6105C29.0929 10.4406 27.8006 9.99142 26.8421 8.97788L28.3618 7.17539C29.8815 8.86558 31.3724 8.5834 31.8502 8.5834C32.4143 8.5834 32.8921 8.47111 33.2001 8.24652C33.5109 8.02193 33.6491 7.73975 33.6491 7.37407C33.6491 7.00839 33.5081 6.755 33.2548 6.5592C32.9727 6.36341 32.4949 6.24823 31.8473 6.24823H30.6097V4.47453L30.6673 4.41695L34.5788 0.0287781H36.1272V1.57788L35.9574 1.77368L33.7354 4.30753C34.4118 4.44862 34.9731 4.702 35.3962 5.06768C36.0725 5.65796 36.4093 6.44691 36.4093 7.40286H36.4064ZM22.4529 2.25166V8.05072H15.784V2.25166L12.3503 10.216V16.971H15.7553V10.9474H22.45V16.9998H25.8837V2.25166H22.45H22.4529Z" fill="white"/>
<path d="M38.2602 13.9882L36.9189 17H40.2519L41.5039 13.9882H38.2602Z" fill="white"/>
<path d="M52.6771 17H49.2665L48.2418 14.5267L48.0202 13.9882H48.0173L46.9956 11.5177L46.8919 11.2701L44.7678 6.13616L42.5315 11.5177H39.3625L43.1819 2.94293H46.394L52.6771 17Z" fill="white"/>
<path d="M46.4459 13.9882H40.37L40.1915 13.5822L39.3223 11.604L39.2849 11.5177H45.3608L46.4459 13.9882Z" fill="url(#paint3_linear_74_190)"/>
<path d="M54.1421 2.94287V17H57.3945V2.94287H54.1421Z" fill="white"/>
<defs>
<linearGradient id="paint0_linear_74_190" x1="0" y1="9.61133" x2="0.287821" y2="9.61133" gradientUnits="userSpaceOnUse">
<stop offset="0.04" stop-color="#5FDADD"/>
<stop offset="0.84" stop-color="#49A6F4"/>
</linearGradient>
<linearGradient id="paint1_linear_74_190" x1="-5.98592e-05" y1="1.12583" x2="0.287761" y2="1.12583" gradientUnits="userSpaceOnUse">
<stop stop-color="#6AB2F9"/>
<stop offset="0.34" stop-color="#6581F2"/>
<stop offset="0.67" stop-color="#6056EB"/>
<stop offset="0.84" stop-color="#5E45E9"/>
</linearGradient>
<linearGradient id="paint2_linear_74_190" x1="0" y1="9.61133" x2="14.2068" y2="9.61133" gradientUnits="userSpaceOnUse">
<stop stop-color="#6AB2F9"/>
<stop offset="0.34" stop-color="#6581F2"/>
<stop offset="0.67" stop-color="#6056EB"/>
<stop offset="0.84" stop-color="#5E45E9"/>
</linearGradient>
<linearGradient id="paint3_linear_74_190" x1="39.2849" y1="12.7529" x2="46.4459" y2="12.7529" gradientUnits="userSpaceOnUse">
<stop stop-color="#6AB2F9"/>
<stop offset="0.34" stop-color="#6581F2"/>
<stop offset="0.67" stop-color="#6056EB"/>
<stop offset="0.84" stop-color="#5E45E9"/>
</linearGradient>
</defs>
</svg>
