<svg width="151" height="45" viewBox="0 0 151 45" fill="none" xmlns="http://www.w3.org/2000/svg">
<path d="M29.0283 5.91083L16.9168 34.3538L8.93819 15.1474H0L12.5573 44.5503H20.6795L37.2941 5.91083H29.0283Z" fill="url(#paint0_linear_12028_68)"/>
<path d="M85.9669 0H74.7394L72.231 5.91081H80.7989L85.9669 0Z" fill="url(#paint1_linear_12028_68)"/>
<path d="M29.0283 5.91083L16.9168 34.3538L8.93819 15.1474H0L12.5573 44.5503H20.6795L37.2941 5.91083H29.0283Z" fill="url(#paint2_linear_12028_68)"/>
<path d="M95.5695 19.4332C95.5695 21.0583 95.1237 22.5397 94.3153 23.9381C93.4993 25.344 92.1771 26.5231 90.4015 27.3395C88.7015 28.2238 86.4878 28.6698 83.8282 28.6698C81.9091 28.6698 79.9145 28.375 78.0709 27.8534C76.3709 27.4075 72.9785 26.2283 70.4625 23.5677L74.4518 18.836C78.4411 23.2729 82.3549 22.5322 83.6091 22.5322C85.09 22.5322 86.3442 22.2374 87.1526 21.6478C87.9686 21.0583 88.3313 20.3175 88.3313 19.3576C88.3313 18.3976 87.9611 17.7325 87.2962 17.2185C86.5558 16.7045 85.3015 16.4022 83.6016 16.4022H80.3527V11.7461L80.5038 11.5949L90.7717 0.0756226H94.8366V4.14215L94.3908 4.65612L88.558 11.3077C90.3335 11.6781 91.8069 12.3432 92.9175 13.3032C94.6931 14.8527 95.5771 16.9237 95.5771 19.4332H95.5695ZM58.9403 5.91085V21.1338H41.4342V5.91085L32.4204 26.8179V44.5503H41.3586V28.7378H58.9328V44.6259H67.9465V5.91085H58.9328H58.9403Z" fill="black"/>
<path d="M100.436 36.7201L96.9155 44.6264H105.665L108.951 36.7201H100.436Z" fill="black"/>
<path d="M138.281 44.6265H129.328L126.638 38.1337L126.057 36.7202H126.049L123.367 30.2349L123.095 29.5849L117.519 16.1079L111.648 30.2349H103.33L113.356 7.72546H121.788L138.281 44.6265Z" fill="black"/>
<path d="M121.924 36.7201H105.974L105.506 35.6544L103.224 30.4616L103.126 30.2349H119.076L121.924 36.7201Z" fill="url(#paint3_linear_12028_68)"/>
<path d="M142.127 7.72528V44.6263H150.665V7.72528H142.127Z" fill="black"/>
<defs>
<linearGradient id="paint0_linear_12028_68" x1="0" y1="25.2306" x2="0.755553" y2="25.2306" gradientUnits="userSpaceOnUse">
<stop offset="0.04" stop-color="#5FDADD"/>
<stop offset="0.84" stop-color="#49A6F4"/>
</linearGradient>
<linearGradient id="paint1_linear_12028_68" x1="0.000113755" y1="2.9554" x2="0.755667" y2="2.9554" gradientUnits="userSpaceOnUse">
<stop stop-color="#6AB2F9"/>
<stop offset="0.34" stop-color="#6581F2"/>
<stop offset="0.67" stop-color="#6056EB"/>
<stop offset="0.84" stop-color="#5E45E9"/>
</linearGradient>
<linearGradient id="paint2_linear_12028_68" x1="0" y1="25.2306" x2="37.2941" y2="25.2306" gradientUnits="userSpaceOnUse">
<stop stop-color="#6AB2F9"/>
<stop offset="0.34" stop-color="#6581F2"/>
<stop offset="0.67" stop-color="#6056EB"/>
<stop offset="0.84" stop-color="#5E45E9"/>
</linearGradient>
<linearGradient id="paint3_linear_12028_68" x1="103.126" y1="33.4775" x2="121.924" y2="33.4775" gradientUnits="userSpaceOnUse">
<stop stop-color="#6AB2F9"/>
<stop offset="0.34" stop-color="#6581F2"/>
<stop offset="0.67" stop-color="#6056EB"/>
<stop offset="0.84" stop-color="#5E45E9"/>
</linearGradient>
</defs>
</svg>
